<svg version="1.1" id="mainStackChart" xmlns="http://www.w3.org/2000/svg" xmlns:xlink="http://www.w3.org/1999/xlink" x="0px"
	 y="0px" width="318.5px" height="196px" viewBox="0 56.5 318.5 196" enable-background="new 0 56.5 318.5 196"
	 xml:space="preserve">
<g transform="translate(0,75) rotate(90)">
	<g>
		
			<rect x="5.813" y="-61.096" pointer-events="all" transform="matrix(2.578893e-006 1 -1 2.578893e-006 -21.4603 -73.4601)" fill="#668ED0" width="40.375" height="27.272"/>
		
			<rect x="60.358" y="-61.096" pointer-events="all" transform="matrix(2.578893e-006 1 -1 2.578893e-006 33.085 -128.0055)" fill="#668ED0" width="40.375" height="27.272"/>
	</g>
	<g>
		
			<rect x="11.966" y="-95.318" pointer-events="all" transform="matrix(2.578893e-006 1 -1 2.578893e-006 -55.682 -107.6817)" fill="#B4C8E8" width="28.068" height="27.272"/>
		
			<rect x="66.511" y="-95.318" pointer-events="all" transform="matrix(2.578893e-006 1 -1 2.578893e-006 -1.1367 -162.2271)" fill="#B4C8E8" width="28.068" height="27.272"/>
	</g>
	<g>
		
			<rect x="14.013" y="-121.339" pointer-events="all" transform="matrix(2.578893e-006 1 -1 2.578893e-006 -81.7029 -133.7026)" fill="#8DABDC" width="23.974" height="27.272"/>
		
			<rect x="68.559" y="-121.339" pointer-events="all" transform="matrix(2.578893e-006 1 -1 2.578893e-006 -27.1577 -188.248)" fill="#8DABDC" width="23.974" height="27.272"/>
	</g>
	<g>
		
			<rect x="-63.517" y="-222.843" pointer-events="all" transform="matrix(2.578893e-006 1 -1 2.578893e-006 -183.2068 -235.2063)" fill="#53BCCA" width="179.034" height="27.272"/>
		<polygon pointer-events="all" fill="#53BCCA" points="66.909,-119.69 94.182,-119.69 94.182,-119.69 		"/>
	</g>
	<g>
		<polygon pointer-events="all" fill="#B4E2E8" points="12.364,-298.724 39.636,-298.724 39.636,-298.724 		"/>
		
			<rect x="56.113" y="-157.759" pointer-events="all" transform="matrix(2.578893e-006 1 -1 2.578893e-006 -63.5771 -224.6674)" fill="#B4E2E8" width="48.865" height="27.272"/>
	</g>
	<g>
		
			<rect x="25.362" y="-312.998" pointer-events="all" transform="matrix(2.578893e-006 1 -1 2.578893e-006 -273.3621 -325.3613)" fill="#666666" width="1.276" height="27.272"/>
		<polygon pointer-events="all" fill="#666666" points="66.909,-168.555 94.182,-168.555 94.182,-168.555 		"/>
	</g>
	<text transform="matrix(0 -1 1 0 7.8179 -27.2717)" fill="#666666" font-family="'ArialMT'" font-size="10.9091">usually resident population (workers)</text>
	<text transform="matrix(0 -1 1 0 62.3633 -27.2717)" fill="#666666" font-family="'ArialMT'" font-size="10.9091">workplace population</text>
	<g transform="translate(110,0) rotate(180)">
		<g transform="translate(0,0)">
			<line fill="none" x1="15.818" y1="27.273" x2="10.363" y2="27.273"/>
			<text transform="matrix(0 1 -1 0 -1.3086 24.2385)" font-family="'ArialMT'" font-size="10.9091">0</text>
		</g>
		<g transform="translate(0,70.17215568862275)">
			<line fill="none" x1="15.818" y1="20.894" x2="10.363" y2="20.894"/>
			<text transform="matrix(0 1 -1 0 -1.3086 4.2094)" font-family="'ArialMT'" font-size="10.9091">10,000</text>
		</g>
		<g transform="translate(0,140.3443113772455)">
			<line fill="none" x1="15.818" y1="14.514" x2="10.363" y2="14.514"/>
			<text transform="matrix(0 1 -1 0 -1.3086 -2.1698)" font-family="'ArialMT'" font-size="10.9091">20,000</text>
		</g>
		<g transform="translate(0,210.51646706586828)">
			<line fill="none" x1="15.818" y1="8.135" x2="10.363" y2="8.135"/>
			<text transform="matrix(0 1 -1 0 -1.3086 -8.5494)" font-family="'ArialMT'" font-size="10.9091">30,000</text>
		</g>
		<g transform="translate(0,280.688622754491)">
			<line fill="none" x1="15.818" y1="1.756" x2="10.363" y2="1.756"/>
			<text transform="matrix(0 1 -1 0 -1.3086 -14.9286)" font-family="'ArialMT'" font-size="10.9091">40,000</text>
		</g>
		<path d="M10.363,27.273h5.455V300h-5.455"/>
	</g>
	<g id="legend" transform="translate(200,65) rotate(-90)">
		<g>
			<rect x="96.819" y="-78.545" fill="#668ED0" width="9.091" height="9.09"/>
			<text transform="matrix(1 0 0 1 110.4539 -70.3633)" font-family="'ArialMT'" font-size="10.9091">Live and work in same LA</text>
		</g>
		<g>
			<rect x="96.819" y="-63.091" fill="#B4C8E8" width="9.091" height="9.091"/>
			<text transform="matrix(1 0 0 1 110.4539 -54.9102)" font-family="'ArialMT'" font-size="10.9091">Home workers</text>
		</g>
		<g>
			<rect x="96.819" y="-47.637" fill="#8DABDC" width="9.091" height="9.092"/>
			<text transform="matrix(1 0 0 1 110.4539 -39.4551)" font-family="'ArialMT'" font-size="10.9091">No fixed place</text>
		</g>
		<g>
			<rect x="242.273" y="-78.545" fill="#53BCCA" width="9.091" height="9.09"/>
			<text transform="matrix(1 0 0 1 255.9084 -70.3633)" font-family="'ArialMT'" font-size="10.9091">Out-commuter</text>
		</g>
		<g>
			<rect x="242.273" y="-63.091" fill="#B4E2E8" width="9.091" height="9.091"/>
			<text transform="matrix(1 0 0 1 255.9084 -54.9102)" font-family="'ArialMT'" font-size="10.9091">In-Commuter</text>
		</g>
		<g>
			<rect x="242.273" y="-47.637" fill="#666666" width="9.091" height="9.092"/>
			<text transform="matrix(1 0 0 1 255.9084 -39.4551)" font-family="'ArialMT'" font-size="10.9091">Outside UK or offshore</text>
		</g>
	</g>
</g>
</svg>
